<svg
  xmlns="http://www.w3.org/2000/svg"
  width="42.022"
  height="45.932"
  viewBox="0 0 42.022 45.932"
>
 <style type="text/css">
    .header-logo{fill:var(--color-bg-logo-main);}
  </style>
  <path
    class="header-logo"
    id="Path_331"
    data-name="Path 331"
    d="M69.945,409.185l-9.594-9.6a3.981,3.981,0,0,1-1.234-3.058V371.344h6.854v25.59h6.385v6.4H87.9v-6.4h6.4v-6.4H87.906v6.4H72.357V377.745H87.9v6.385h6.4V371.344H65.971V364.49h35.162v32.037a4.08,4.08,0,0,1-1.234,3.059l-9.594,9.6a4.021,4.021,0,0,1-3.064,1.234H73.01a4.119,4.119,0,0,1-3.064-1.234"
    transform="translate(-59.114 -364.49)"
  />
</svg>
